<mxfile host="app.diagrams.net" agent="Mozilla/5.0 (Linux; Android 12; HarmonyOS; TGR-W10; HMSCore 6.14.2.309) AppleWebKit/537.36 (KHTML, like Gecko) Chrome/114.0.5735.196 HuaweiBrowser/15.0.9.300 Safari/537.36" version="25.0.3">
  <diagram name="第 1 页" id="PBCk1BnRWtfJVVPgHtYJ">
    <mxGraphModel>
      <root>
        <mxCell id="0" />
        <mxCell id="1" parent="0" />
      </root>
    </mxGraphModel>
  </diagram>
</mxfile>
